HIERARCHY
ROOT Hips
{
	OFFSET 0.000000 0.000000 0.000000
	CHANNELS 6 Xposition Yposition Zposition Zrotation Yrotation Xrotation 
	JOINT LHipJoint
	{
		OFFSET 0.000000 0.000000 0.000000
		CHANNELS 3 Zrotation Yrotation Xrotation
		JOINT LeftUpLeg
		{
			OFFSET 1.363060 -1.794630 0.839290
			CHANNELS 3 Zrotation Yrotation Xrotation
			JOINT LeftLeg
			{
				OFFSET 2.448110 -6.726130 0.000000
				CHANNELS 3 Zrotation Yrotation Xrotation
				JOINT LeftFoot
				{
					OFFSET 2.562200 -7.039590 0.000000
					CHANNELS 3 Zrotation Yrotation Xrotation
					JOINT LeftToeBase
					{
						OFFSET 0.157640 -0.433110 2.322550
						CHANNELS 3 Zrotation Yrotation Xrotation
						End Site
						{
							OFFSET 0.000000 0.000000 0.000000
						}
					}
				}
			}
		}
	}
	JOINT RHipJoint
	{
		OFFSET 0.000000 0.000000 0.000000
		CHANNELS 3 Zrotation Yrotation Xrotation
		JOINT RightUpLeg
		{
			OFFSET -1.305520 -1.794630 0.839290
			CHANNELS 3 Zrotation Yrotation Xrotation
			JOINT RightLeg
			{
				OFFSET -2.542530 -6.985550 0.000000
				CHANNELS 3 Zrotation Yrotation Xrotation
				JOINT RightFoot
				{
					OFFSET -2.568260 -7.056230 0.000000
					CHANNELS 3 Zrotation Yrotation Xrotation
					JOINT RightToeBase
					{
						OFFSET -0.164730 -0.452590 2.363150
						CHANNELS 3 Zrotation Yrotation Xrotation
						End Site
						{
							OFFSET 0.000000 0.000000 0.000000
						}
					}
				}
			}
		}
	}
	JOINT LowerBack
	{
		OFFSET 0.000000 0.000000 0.000000
		CHANNELS 3 Zrotation Yrotation Xrotation
		JOINT Spine
		{
			OFFSET 0.028270 2.035590 -0.193380
			CHANNELS 3 Zrotation Yrotation Xrotation
			JOINT Spine1
			{
				OFFSET 0.056720 2.048850 -0.042750
				CHANNELS 3 Zrotation Yrotation Xrotation
				JOINT Neck
				{
					OFFSET 0.000000 0.000000 0.000000
					CHANNELS 3 Zrotation Yrotation Xrotation
					JOINT Neck1
					{
						OFFSET -0.054170 1.746240 0.172020
						CHANNELS 3 Zrotation Yrotation Xrotation
						JOINT Head
						{
							OFFSET 0.104070 1.761360 -0.123970
							CHANNELS 3 Zrotation Yrotation Xrotation
							End Site
							{
								OFFSET 0.000000 0.000000 0.000000
							}
						}
					}
				}
				JOINT LeftShoulder
				{
					OFFSET 0.000000 0.000000 0.000000
					CHANNELS 3 Zrotation Yrotation Xrotation
					JOINT LeftArm
					{
						OFFSET 3.362410 1.200890 -0.311210
						CHANNELS 3 Zrotation Yrotation Xrotation
						JOINT LeftForeArm
						{
							OFFSET 4.983000 -0.000000 -0.000000
							CHANNELS 3 Zrotation Yrotation Xrotation
							JOINT LeftHand
							{
								OFFSET 3.483560 -0.000000 -0.000000
								CHANNELS 3 Zrotation Yrotation Xrotation
								JOINT LeftFingerBase
								{
									OFFSET 0.000000 0.000000 0.000000
									CHANNELS 3 Zrotation Yrotation Xrotation
									JOINT LeftHandIndex1
									{
										OFFSET 0.715260 -0.000000 -0.000000
										CHANNELS 3 Zrotation Yrotation Xrotation
										End Site
										{
											OFFSET 0.000000 0.000000 0.000000
										}
									}
								}
								JOINT LThumb
								{
									OFFSET 0.000000 0.000000 0.000000
									CHANNELS 3 Zrotation Yrotation Xrotation
									End Site
									{
										OFFSET 0.000000 0.000000 0.000000
									}
								}
							}
						}
					}
				}
				JOINT RightShoulder
				{
					OFFSET 0.000000 0.000000 0.000000
					CHANNELS 3 Zrotation Yrotation Xrotation
					JOINT RightArm
					{
						OFFSET -3.136600 1.374050 -0.404650
						CHANNELS 3 Zrotation Yrotation Xrotation
						JOINT RightForeArm
						{
							OFFSET -5.241900 -0.000000 -0.000000
							CHANNELS 3 Zrotation Yrotation Xrotation
							JOINT RightHand
							{
								OFFSET -3.444170 -0.000000 -0.000000
								CHANNELS 3 Zrotation Yrotation Xrotation
								JOINT RightFingerBase
								{
									OFFSET 0.000000 0.000000 0.000000
									CHANNELS 3 Zrotation Yrotation Xrotation
									JOINT RightHandIndex1
									{
										OFFSET -0.622530 -0.000000 -0.000000
										CHANNELS 3 Zrotation Yrotation Xrotation
										End Site
										{
											OFFSET 0.000000 0.000000 0.000000
										}
									}
								}
								JOINT RThumb
								{
									OFFSET 0.000000 0.000000 0.000000
									CHANNELS 3 Zrotation Yrotation Xrotation
									End Site
									{
										OFFSET 0.000000 0.000000 0.000000
									}
								}
							}
						}
					}
				}
			}
		}
	}
}
MOTION
Frames: 6
Frame Time: 0.008333
0.069209 16.326824 0.516325 33.133076 77.452782 55.681400 -7.336108 -0.550904 -0.549634 -14.182112 -6.842425 -49.023713 -2.341208 1.739613 35.232040 0.225713 -0.072630 -3.082273 0.166600 -0.000000 -31.691300 13.144042 -0.971182 -4.117206 0.969493 -6.101661 -17.182958 -0.623375 -4.151626 54.531885 -0.036384 12.410467 18.233556 5.563400 -0.000000 -76.186900 -8.357474 0.782550 7.317220 -2.915114 1.112221 -2.050416 -7.326944 1.015891 -0.941255 9.235460 2.875111 1.896413 -5.175656 -0.448497 2.092553 0.000000 0.000000 0.000000 -6.959214 -0.347072 3.106799 -59.154408 12.489737 21.333059 -3.848759 -15.097934 -0.008321 -2.394744 4.360357 -0.090051 -0.068972 -0.066636 -0.000000 0.000000 0.000000 0.000000 0.000000 0.000000 0.000000 22.242500 4.524421 -1.003929 82.937699 21.183243 41.433973 1.020799 61.643279 0.007711 2.772021 12.701636 0.325836 -0.057403 -0.409397 -0.000000 0.000000 0.000000 0.000000 0.000000 0.000000 0.000000 
0.214552 16.299756 0.555847 33.573738 77.070064 55.714220 -7.248003 -0.526684 -0.833791 -14.635686 -6.801162 -48.483647 -2.275052 1.840969 37.024578 0.366520 0.562940 -4.613099 0.157200 0.000000 -31.896000 13.320282 -0.826525 -4.295492 0.502501 -6.313596 -17.459853 -0.788118 -4.282777 56.410358 -0.229425 11.443407 19.645518 5.492199 -0.000000 -72.984800 -8.566165 0.909238 7.889352 -2.966385 1.237736 -1.957882 -7.335488 1.142153 -1.028164 8.991414 3.357325 2.404835 -5.266120 -0.455398 2.199406 0.000000 0.000000 0.000000 -7.452160 -0.984899 3.115969 -58.744975 11.305392 21.594663 -3.883102 -13.814725 -0.007667 -2.141097 4.326743 -0.079533 -0.068896 -0.059162 0.000000 0.000000 0.000000 0.000000 0.000000 0.000000 0.000000 22.336252 4.764662 -1.101860 82.870735 21.094802 39.711657 1.031013 60.199252 0.004197 2.314947 13.170129 0.282618 -0.055265 -0.401848 -0.000000 0.000000 0.000000 0.000000 0.000000 0.000000 0.000000 
0.360324 16.285032 0.593507 33.716307 76.663903 55.489837 -7.171541 -0.492574 -1.080690 -15.040613 -6.722121 -47.768006 -2.245651 1.898660 38.321175 0.508172 1.181910 -6.161746 0.112300 0.000000 -32.591300 13.468233 -0.683859 -4.446393 0.122236 -6.461977 -17.828637 -0.942692 -4.403459 58.212677 -0.434195 10.079283 20.796537 5.146899 -0.000000 -69.648400 -8.705996 1.051568 8.388191 -3.000910 1.378609 -1.866967 -7.323576 1.284344 -1.073193 8.703365 3.840444 2.937675 -5.349006 -0.461641 2.312321 0.000000 0.000000 0.000000 -7.944501 -1.551964 3.098298 -58.485928 9.809140 21.445555 -3.907328 -12.205923 -0.006688 -1.644410 4.306302 -0.060108 -0.067470 -0.049128 0.000000 0.000000 0.000000 0.000000 0.000000 0.000000 0.000000 22.332309 4.970837 -1.220945 82.835989 20.999702 37.817549 1.044638 58.437038 0.000509 1.770616 13.597969 0.224098 -0.051736 -0.390436 -0.000000 0.000000 0.000000 0.000000 0.000000 0.000000 0.000000 
0.507491 16.281956 0.629375 33.598840 76.248031 55.055366 -7.109386 -0.449727 -1.281454 -15.382088 -6.620926 -46.914513 -2.244852 1.917819 39.151723 0.647124 1.770914 -7.637442 0.036900 -0.000000 -33.594300 13.586930 -0.547258 -4.568924 -0.159940 -6.567890 -18.300354 -1.088829 -4.514052 59.931315 -0.650248 8.288922 21.594433 4.497400 -0.000000 -66.392800 -8.775121 1.200032 8.798445 -3.018707 1.526710 -1.775860 -7.292706 1.434844 -1.060352 8.386588 4.307329 3.464140 -5.422467 -0.466850 2.423437 0.000000 0.000000 0.000000 -8.404934 -1.951829 3.048197 -58.387797 7.914680 20.933391 -3.910976 -10.270032 -0.005440 -0.845089 4.278207 -0.029477 -0.063698 -0.036361 0.000000 0.000000 0.000000 0.000000 0.000000 0.000000 0.000000 22.237633 5.133581 -1.362064 82.834973 20.910191 35.758096 1.060941 56.388860 -0.003081 1.156682 13.948148 0.151674 -0.047025 -0.375277 -0.000000 0.000000 0.000000 0.000000 0.000000 0.000000 0.000000 
0.656749 16.289663 0.663839 33.274922 75.835408 54.470092 -7.063644 -0.399475 -1.428918 -15.649274 -6.515500 -45.958834 -2.263445 1.903318 39.557377 0.779543 2.323534 -8.956064 -0.058300 0.000000 -34.706000 13.676362 -0.419629 -4.663653 -0.337719 -6.653643 -18.879633 -1.228280 -4.614865 61.558455 -0.877165 6.087089 21.962191 3.556000 0.000000 -63.339000 -8.772845 1.345824 9.109230 -3.020681 1.674135 -1.686864 -7.249118 1.585695 -0.991616 8.060837 4.749986 3.969794 -5.485019 -0.470903 2.529745 0.000000 0.000000 0.000000 -8.825463 -2.175588 2.964975 -58.436722 5.664719 20.064257 -3.883801 -8.103914 -0.004125 0.310670 4.217730 0.013557 -0.056485 -0.021484 0.000000 0.000000 0.000000 0.000000 0.000000 0.000000 0.000000 22.069411 5.251703 -1.517953 82.860071 20.824312 33.527677 1.079372 54.100444 -0.006318 0.493305 14.188250 0.068647 -0.041428 -0.356900 -0.000000 0.000000 0.000000 0.000000 0.000000 0.000000 0.000000 
0.808461 16.307047 0.697433 32.807180 75.439629 53.800322 -7.035437 -0.343161 -1.519361 -15.837132 -6.424396 -44.933562 -2.292355 1.860163 39.587987 0.901681 2.839304 -10.048471 -0.159900 0.000000 -35.745300 13.737474 -0.302070 -4.733778 -0.411255 -6.742103 -19.566900 -1.361806 -4.706631 63.086127 -1.113407 3.540625 21.841383 2.383400 -0.000001 -60.493500 -8.701833 1.479596 9.317891 -3.008479 1.811890 -1.600517 -7.200038 1.727874 -0.867383 7.746884 5.160025 4.436147 -5.535741 -0.473660 2.626963 0.000000 0.000000 0.000000 -9.202800 -2.198399 2.849384 -58.602236 3.093550 18.956596 -3.816328 -5.843912 -0.003066 1.846781 4.094452 0.067688 -0.045130 -0.005602 0.000000 0.000000 0.000000 0.000000 0.000000 0.000000 0.000000 21.851132 5.324572 -1.682702 82.898753 20.748223 31.128641 1.099954 51.628963 -0.009018 -0.202043 14.295745 -0.021180 -0.035137 -0.336042 -0.000000 0.000000 0.000000 0.000000 0.000000 0.000000 0.000000 
